<?xml version="1.0" standalone="no"?>
<!DOCTYPE svg PUBLIC "-//W3C//DTD SVG 20010904//EN"
 "http://www.w3.org/TR/2001/REC-SVG-20010904/DTD/svg10.dtd">
<svg version="1.0" xmlns="http://www.w3.org/2000/svg"
 width="512.000000pt" height="512.000000pt" viewBox="0 0 512.000000 512.000000"
 preserveAspectRatio="xMidYMid meet">
<metadata>
Created by potrace 1.14, written by Peter Selinger 2001-2017
</metadata>
<g transform="translate(0.000000,512.000000) scale(0.100000,-0.100000)"
fill="#000000" stroke="none">
<path d="M1905 5063 c-33 -7 -71 -16 -85 -19 -63 -14 -335 -108 -348 -120 -7
-8 -16 -29 -19 -48 -5 -32 -11 -37 -67 -59 -60 -24 -61 -24 -82 -5 -12 11 -35
20 -51 20 -34 1 -301 -125 -478 -227 -99 -56 -383 -238 -420 -268 -5 -4 -44
-33 -86 -65 -183 -138 -226 -181 -254 -263 -12 -33 -14 -88 -13 -263 3 -252 9
-275 91 -353 55 -53 210 -172 330 -253 l96 -65 1 -376 c0 -257 4 -387 12 -410
20 -61 59 -103 169 -184 121 -89 115 -75 84 -196 -59 -230 139 -423 361 -353
46 14 71 30 112 71 28 30 52 60 52 68 0 27 18 25 96 -11 44 -19 94 -42 112
-51 l34 -15 -114 -46 c-127 -52 -143 -62 -180 -112 -41 -55 -60 -125 -63 -236
-3 -99 1 -136 32 -264 67 -282 251 -557 428 -641 94 -45 132 -41 326 37 90 36
173 69 184 74 108 47 453 181 469 183 17 2 35 -36 130 -270 119 -292 130 -310
187 -298 22 5 39 20 59 53 16 26 34 52 40 59 5 7 10 14 10 17 0 2 18 33 39 67
22 35 65 107 97 160 l57 96 146 -39 c279 -74 336 -88 357 -88 27 0 64 40 64
71 -1 13 -50 146 -109 294 -60 149 -108 271 -107 273 2 1 174 71 383 155 209
84 390 159 403 168 14 9 23 26 25 49 2 33 6 37 66 62 l64 27 21 -20 c12 -11
30 -22 40 -23 19 -3 89 19 169 54 22 9 78 32 125 50 109 42 167 98 195 185 23
72 27 268 6 355 -43 179 -87 289 -170 425 -59 96 -74 115 -136 178 -84 84
-200 139 -275 130 -19 -3 -190 -68 -380 -144 -190 -77 -349 -141 -355 -143 -5
-1 -27 -10 -49 -19 -21 -9 -42 -17 -47 -17 -5 0 -17 -5 -27 -10 -24 -14 -186
-79 -190 -75 -2 2 -4 397 -2 595 l0 85 93 62 c162 110 340 255 374 306 47 70
56 131 51 356 -4 189 -5 198 -30 247 -74 141 -558 476 -1003 694 -255 125
-565 246 -755 295 -14 3 -49 12 -77 20 -77 21 -150 24 -218 8z"/>
</g>
</svg>
